<svg width="700" height="786" viewBox="0 0 700 786" fill="none" xmlns="http://www.w3.org/2000/svg">
<path d="M26.5634 628.282L322.782 35.8447C330.159 21.0913 351.218 21.1072 358.573 35.8717L654.725 630.419C663.288 647.61 645.056 665.814 627.878 657.225L349.581 518.076C343.989 515.28 337.411 515.26 331.801 518.022L53.2873 655.169C36.0995 663.633 17.9954 645.419 26.5634 628.282Z" fill="#3478F6"/>
<path d="M333.801 550.721L230.985 603.271C226.922 605.348 224.025 609.162 223.114 613.634L202.842 713.151C200.257 725.842 213.889 735.624 225.083 729.111L330.648 667.691C335.275 664.999 340.985 664.977 345.633 667.633L453.915 729.508C465.112 735.907 478.63 726.128 476.056 713.491L455.697 613.551C454.796 609.126 451.95 605.343 447.948 603.251L347.576 550.784C343.266 548.531 338.131 548.508 333.801 550.721Z" fill="#3478F6"/>
</svg>
